<?xml version="1.0" standalone="no"?>
<!DOCTYPE svg PUBLIC "-//W3C//DTD SVG 20010904//EN"
 "http://www.w3.org/TR/2001/REC-SVG-20010904/DTD/svg10.dtd">
<svg version="1.0" xmlns="http://www.w3.org/2000/svg"
 width="657.000000pt" height="657.000000pt" viewBox="0 0 657.000000 657.000000"
 preserveAspectRatio="xMidYMid meet">
<metadata>
Created by potrace 1.14, written by Peter Selinger 2001-2017
</metadata>
<g transform="translate(0.000000,657.000000) scale(0.100000,-0.100000)"
fill="#000000" stroke="none">
<path d="M4377 4003 c-58 -87 -138 -205 -177 -262 -39 -57 -126 -185 -193
-283 -67 -99 -142 -210 -167 -247 -25 -36 -83 -121 -128 -189 l-83 -123 -31
38 c-16 21 -109 146 -206 278 -172 233 -186 252 -207 278 -6 7 -35 47 -65 89
-30 43 -58 78 -61 78 -4 0 -17 -37 -29 -82 -12 -46 -26 -96 -31 -113 -10 -31
-68 -244 -74 -274 -16 -70 -108 -388 -114 -394 -6 -6 -280 139 -796 423 -27
15 -196 107 -375 205 -179 98 -350 191 -380 208 -41 23 -51 26 -39 11 31 -38
174 -209 179 -214 5 -5 94 -110 132 -155 24 -28 46 -55 100 -116 44 -52 78
-92 96 -114 15 -20 195 -231 221 -260 14 -16 49 -57 76 -90 62 -75 91 -108
133 -156 l33 -37 -68 -15 c-37 -9 -126 -27 -198 -41 -71 -15 -139 -28 -150
-30 -78 -17 -235 -48 -260 -52 -16 -3 -73 -15 -125 -26 -117 -24 -129 -26
-160 -33 -14 -3 -40 -8 -59 -10 -47 -7 -55 -15 -34 -34 10 -9 155 -127 323
-261 168 -134 307 -247 310 -250 3 -3 34 -28 70 -55 78 -60 136 -113 130 -118
-3 -2 -57 -41 -120 -86 -63 -46 -119 -87 -124 -92 -6 -5 890 -9 2100 -9 l2109
0 -315 209 c-173 116 -319 214 -325 218 -5 5 -25 18 -42 28 -40 23 -41 32 -8
47 14 6 25 14 25 17 0 4 25 20 55 36 30 15 55 32 55 37 0 4 4 8 10 8 8 0 89
49 285 175 28 18 117 74 199 126 l149 94 -64 12 c-101 19 -104 19 -294 52
-185 33 -384 68 -421 75 -12 3 -39 7 -60 11 -22 4 -46 8 -54 10 -8 2 -39 6
-68 10 -64 9 -64 11 -4 105 214 334 328 525 315 528 -8 2 -34 -1 -58 -7 -24
-6 -60 -13 -80 -17 -21 -3 -45 -7 -54 -9 -31 -6 -496 -97 -516 -101 -11 -2
-67 -13 -125 -24 -58 -11 -111 -20 -118 -20 -14 0 -13 31 3 235 2 28 6 86 10
130 12 166 16 222 20 275 2 30 7 93 10 140 4 47 8 105 11 130 8 86 15 240 11
240 -2 0 -51 -71 -110 -157z"/>
</g>
</svg>
